<svg width="426" height="48" viewBox="0 0 426 48" fill="none" xmlns="http://www.w3.org/2000/svg">
<path d="M0 0.774113H11.8935V29.6768C11.8935 33.8706 14.0384 36.1278 18.0236 36.1278H31.8168V47.2234H0V0.774113Z" fill="#EDEDED"/>
<path d="M36.2304 0.774113H68.6614V11.8697H50.6998C49.2904 11.8697 48.4929 12.709 48.4929 14.1921V16.4493C48.4929 17.9324 49.2904 18.7716 50.6998 18.7716H66.8236V29.1582H50.6998C49.2904 29.1582 48.4929 29.9975 48.4929 31.4806V33.8029C48.4929 35.286 49.2904 36.1253 50.6998 36.1253H68.6614V47.2209H36.2304V0.774113Z" fill="#EDEDED"/>
<path d="M71.2968 24C71.2968 10.7098 81.4739 0 94.103 0C106.732 0 116.909 10.7098 116.909 24C116.909 37.2902 106.732 48 94.103 48C81.4739 48 71.2968 37.2902 71.2968 24ZM86.1327 34.9027H102.073C103.483 34.9027 104.035 34.1286 104.035 32.3875V15.6125C104.035 13.8714 103.483 13.0973 102.073 13.0973H86.1327C84.7234 13.0973 84.1711 13.8714 84.1711 15.6125V32.3875C84.1711 34.1286 84.7234 34.9027 86.1327 34.9027Z" fill="#EDEDED"/>
<path d="M132.355 22.0635V47.2234H121.075V0.774113H136.771L147.376 23.8071C148.236 25.7436 150.073 24.9044 150.073 23.4839V0.774113H161.293V47.2259H147.193L134.809 21.4196C134.073 19.9365 132.357 20.7733 132.357 22.066L132.355 22.0635Z" fill="#EDEDED"/>
<path d="M181.335 38.1921C180.231 38.1921 179.495 38.7733 179.191 39.8706L177.167 47.2259H164.476L177.843 0.774113H197.583L210.948 47.2259H198.688L196.664 39.8706C196.357 38.7733 195.622 38.1921 194.519 38.1921H181.335ZM185.075 28.0635H190.348C191.82 28.0635 192.493 27.1591 192.065 25.5482L188.815 13.8714C188.387 12.4509 187.037 12.4509 186.609 13.8714L183.359 25.5482C182.931 27.1616 183.604 28.0635 185.075 28.0635Z" fill="#EDEDED"/>
<path d="M226.272 36.8392V47.2259H214.133V0.774113H235.406C244.233 0.774113 250.978 7.61336 250.978 16.9027C250.978 24.3858 246.502 30.3207 239.882 32.3223L252.511 47.2259H238.042L228.417 35.9349C227.681 35.0956 226.331 35.4188 226.272 36.8392ZM239.391 16.9027C239.391 13.1599 236.694 9.99833 232.585 9.99833C228.783 9.99833 225.72 13.1599 225.72 16.9027C225.72 20.6455 228.786 23.9349 232.585 23.9349C236.692 23.9349 239.391 20.7733 239.391 16.9027Z" fill="#EDEDED"/>
<path d="M256.434 0.774113H277.462C290.827 0.774113 300.635 10.5795 300.635 24C300.635 37.4205 290.827 47.2259 277.462 47.2259H256.434V0.774113ZM288.803 23.9349C288.803 17.0956 284.082 12.1278 277.707 12.1278C271.332 12.1278 266.733 17.0956 266.733 23.9349C266.733 30.7741 271.391 35.3536 277.707 35.3536C284.023 35.3536 288.803 30.5161 288.803 23.9349Z" fill="#EDEDED"/>
<path d="M303.575 24C303.575 10.7098 313.752 0 326.381 0C339.01 0 349.187 10.7098 349.187 24C349.187 37.2902 339.01 48 326.381 48C313.752 48 303.575 37.2902 303.575 24ZM318.411 34.9027H334.351C335.761 34.9027 336.313 34.1286 336.313 32.3875V15.6125C336.313 13.8714 335.761 13.0973 334.351 13.0973H318.411C317.001 13.0973 316.449 13.8714 316.449 15.6125V32.3875C316.449 34.1286 317.001 34.9027 318.411 34.9027Z" fill="#EDEDED"/>
<path d="M351.394 33.0313H364.88V47.2259H351.394V33.0313Z" fill="#EDEDED"/>
<path d="M369.66 33.0313L381.737 0.774113H397.309L409.386 33.0313V47.2885H397.737V41.0305C397.737 38.901 396.633 37.7411 394.612 37.7411H384.435C382.411 37.7411 381.309 38.901 381.309 41.0305V47.2885H369.66V33.0313ZM385.908 27.9983H393.081C394.431 27.9983 395.104 26.643 394.614 25.2877L391.057 15.6752C390.443 14.0618 388.605 14.0618 387.991 15.6752L384.375 25.2877C383.885 26.643 384.558 27.9983 385.908 27.9983Z" fill="#EDEDED"/>
<path d="M413.737 0.774113H425.997V47.2259H413.737V0.774113Z" fill="#EDEDED"/>
</svg>
